<svg xmlns="http://www.w3.org/2000/svg" width="32" height="32" viewBox="0 0 32 32" fill="none">
  <rect width="32" height="32" rx="6" fill="#0a0e27"/>
  <path d="M16 8C14.5 8 14 10 14 12C14 14 14.5 16 16 16C17.5 16 18 14 18 12C18 10 17.5 8 16 8Z" fill="#00ff88"/>
  <path d="M12 14C10.5 14 10 16 10 18C10 20 10.5 22 12 22C13.5 22 14 20 14 18C14 16 13.5 14 12 14Z" fill="#00ccff"/>
  <path d="M20 14C18.5 14 18 16 18 18C18 20 18.5 22 20 22C21.5 22 22 20 22 18C22 16 21.5 14 20 14Z" fill="#00ccff"/>
  <circle cx="16" cy="24" r="1.5" fill="#00ff88"/>
  <circle cx="12" cy="24" r="1" fill="#00ff88" opacity="0.6"/>
  <circle cx="20" cy="24" r="1" fill="#00ff88" opacity="0.6"/>
</svg>
